<mxfile host="app.diagrams.net" agent="Mozilla/5.0 (Windows NT 10.0; Win64; x64) AppleWebKit/537.36 (KHTML, like Gecko) Chrome/134.0.0.0 YaBrowser/25.4.0.0 Safari/537.36" version="27.2.0">
  <diagram name="Страница — 1" id="46KVdXWOWip_IbuwgKnU">
    <mxGraphModel dx="2064" dy="2383" grid="1" gridSize="10" guides="1" tooltips="1" connect="1" arrows="1" fold="1" page="1" pageScale="1" pageWidth="827" pageHeight="1169" math="0" shadow="0">
      <root>
        <mxCell id="0" />
        <mxCell id="1" parent="0" />
        <mxCell id="u_dn0Hhk9Msn1rQg7fFf-2" value="Генетический алгоритм" style="text;html=1;align=center;verticalAlign=middle;whiteSpace=wrap;rounded=0;fontSize=18;fontStyle=1" vertex="1" parent="1">
          <mxGeometry x="1129" y="470" width="232" height="30" as="geometry" />
        </mxCell>
        <mxCell id="u_dn0Hhk9Msn1rQg7fFf-3" value="Входные данные" style="text;html=1;align=center;verticalAlign=middle;whiteSpace=wrap;rounded=0;fontSize=18;fontStyle=1" vertex="1" parent="1">
          <mxGeometry x="805" y="470" width="190" height="30" as="geometry" />
        </mxCell>
        <mxCell id="u_dn0Hhk9Msn1rQg7fFf-4" value="Выходные данные" style="text;html=1;align=center;verticalAlign=middle;whiteSpace=wrap;rounded=0;fontSize=18;fontStyle=1" vertex="1" parent="1">
          <mxGeometry x="1585" y="470" width="190" height="30" as="geometry" />
        </mxCell>
        <mxCell id="u_dn0Hhk9Msn1rQg7fFf-5" value="карта станций" style="ellipse;whiteSpace=wrap;html=1;aspect=fixed;fontSize=15;fillColor=#f8cecc;strokeColor=#b85450;" vertex="1" parent="1">
          <mxGeometry x="855" y="130" width="90" height="90" as="geometry" />
        </mxCell>
        <mxCell id="u_dn0Hhk9Msn1rQg7fFf-6" value="парк локомотивов" style="ellipse;whiteSpace=wrap;html=1;aspect=fixed;fontSize=15;fillColor=#f8cecc;strokeColor=#b85450;" vertex="1" parent="1">
          <mxGeometry x="855" y="240" width="90" height="90" as="geometry" />
        </mxCell>
        <mxCell id="u_dn0Hhk9Msn1rQg7fFf-7" value="план&lt;div&gt;&amp;nbsp;поездов&lt;/div&gt;" style="ellipse;whiteSpace=wrap;html=1;aspect=fixed;fontSize=15;fillColor=#f8cecc;strokeColor=#b85450;" vertex="1" parent="1">
          <mxGeometry x="855" y="350" width="90" height="90" as="geometry" />
        </mxCell>
        <mxCell id="u_dn0Hhk9Msn1rQg7fFf-8" value="ограничения" style="ellipse;whiteSpace=wrap;html=1;aspect=fixed;fontSize=15;fillColor=#f8cecc;strokeColor=#b85450;" vertex="1" parent="1">
          <mxGeometry x="855" y="-90" width="90" height="90" as="geometry" />
        </mxCell>
        <mxCell id="u_dn0Hhk9Msn1rQg7fFf-9" value="стоимость" style="ellipse;whiteSpace=wrap;html=1;aspect=fixed;fontSize=15;fillColor=#f8cecc;strokeColor=#b85450;" vertex="1" parent="1">
          <mxGeometry x="855" y="20" width="90" height="90" as="geometry" />
        </mxCell>
        <mxCell id="u_dn0Hhk9Msn1rQg7fFf-12" value="Оптимизи-рованное расписание" style="ellipse;whiteSpace=wrap;html=1;aspect=fixed;fontSize=15;fillColor=#d5e8d4;strokeColor=#82b366;" vertex="1" parent="1">
          <mxGeometry x="1630" y="110" width="100" height="100" as="geometry" />
        </mxCell>
        <mxCell id="u_dn0Hhk9Msn1rQg7fFf-13" value="Время простоя" style="ellipse;whiteSpace=wrap;html=1;aspect=fixed;fontSize=15;fillColor=#d5e8d4;strokeColor=#82b366;" vertex="1" parent="1">
          <mxGeometry x="1630" y="-30" width="100" height="100" as="geometry" />
        </mxCell>
        <mxCell id="u_dn0Hhk9Msn1rQg7fFf-14" value="Суммарный порожний пробег" style="ellipse;whiteSpace=wrap;html=1;aspect=fixed;fontSize=15;fillColor=#d5e8d4;strokeColor=#82b366;" vertex="1" parent="1">
          <mxGeometry x="1630" y="250" width="100" height="100" as="geometry" />
        </mxCell>
        <mxCell id="u_dn0Hhk9Msn1rQg7fFf-15" value="" style="rounded=0;whiteSpace=wrap;html=1;" vertex="1" parent="1">
          <mxGeometry x="1120" width="250" height="360" as="geometry" />
        </mxCell>
        <mxCell id="u_dn0Hhk9Msn1rQg7fFf-16" value="&lt;div&gt;&lt;span style=&quot;background-color: transparent; color: light-dark(rgb(0, 0, 0), rgb(255, 255, 255));&quot;&gt;1. Кодирование решений (хромосомы)&lt;/span&gt;&lt;/div&gt;" style="text;html=1;align=center;verticalAlign=middle;whiteSpace=wrap;rounded=0;fontSize=17;strokeColor=#6c8ebf;fillColor=#dae8fc;" vertex="1" parent="1">
          <mxGeometry x="1120" width="250" height="60" as="geometry" />
        </mxCell>
        <mxCell id="u_dn0Hhk9Msn1rQg7fFf-17" value="&lt;div&gt;&lt;span style=&quot;background-color: transparent; color: light-dark(rgb(0, 0, 0), rgb(255, 255, 255));&quot;&gt;2. Целевая функция&lt;/span&gt;&lt;/div&gt;&lt;div&gt;&lt;span style=&quot;background-color: transparent; color: light-dark(rgb(0, 0, 0), rgb(255, 255, 255));&quot;&gt;&amp;nbsp;(пробег + простой)&lt;/span&gt;&lt;/div&gt;" style="text;html=1;align=center;verticalAlign=middle;whiteSpace=wrap;rounded=0;fontSize=17;strokeColor=#6c8ebf;fillColor=#dae8fc;" vertex="1" parent="1">
          <mxGeometry x="1120" y="60" width="250" height="60" as="geometry" />
        </mxCell>
        <mxCell id="u_dn0Hhk9Msn1rQg7fFf-18" value="&lt;div&gt;3. Селекция хромосом&lt;/div&gt;" style="text;html=1;align=center;verticalAlign=middle;whiteSpace=wrap;rounded=0;fontSize=17;strokeColor=#6c8ebf;fillColor=#dae8fc;" vertex="1" parent="1">
          <mxGeometry x="1120" y="120" width="250" height="60" as="geometry" />
        </mxCell>
        <mxCell id="u_dn0Hhk9Msn1rQg7fFf-19" value="&lt;div&gt;4. Генетические операторы (кроссовер, мутация)&lt;/div&gt;" style="text;html=1;align=center;verticalAlign=middle;whiteSpace=wrap;rounded=0;fontSize=17;strokeColor=#6c8ebf;fillColor=#dae8fc;" vertex="1" parent="1">
          <mxGeometry x="1120" y="180" width="250" height="60" as="geometry" />
        </mxCell>
        <mxCell id="u_dn0Hhk9Msn1rQg7fFf-20" value="&lt;div&gt;5. Формирование новой популяции&amp;nbsp;&lt;/div&gt;" style="text;html=1;align=center;verticalAlign=middle;whiteSpace=wrap;rounded=0;fontSize=17;strokeColor=#6c8ebf;fillColor=#dae8fc;" vertex="1" parent="1">
          <mxGeometry x="1120" y="240" width="250" height="60" as="geometry" />
        </mxCell>
        <mxCell id="u_dn0Hhk9Msn1rQg7fFf-21" value="&lt;div&gt;6. В&lt;span style=&quot;font-family: Arial, sans-serif; text-align: justify; background-color: transparent; color: light-dark(rgb(0, 0, 0), rgb(255, 255, 255));&quot;&gt;ыбор «наилучшей» хромосомы&lt;/span&gt;&lt;/div&gt;" style="text;html=1;align=center;verticalAlign=middle;whiteSpace=wrap;rounded=0;fontSize=17;strokeColor=#6c8ebf;fillColor=#dae8fc;" vertex="1" parent="1">
          <mxGeometry x="1120" y="300" width="250" height="60" as="geometry" />
        </mxCell>
        <mxCell id="u_dn0Hhk9Msn1rQg7fFf-23" value="Итеративное улучшение (поколения N)" style="text;html=1;align=center;verticalAlign=middle;whiteSpace=wrap;rounded=0;fontSize=18;horizontal=1;fontStyle=0;strokeColor=default;" vertex="1" parent="1">
          <mxGeometry x="1440" y="130" width="130" height="100" as="geometry" />
        </mxCell>
        <mxCell id="u_dn0Hhk9Msn1rQg7fFf-26" value="" style="endArrow=classic;html=1;rounded=0;entryX=0;entryY=0.5;entryDx=0;entryDy=0;exitX=1;exitY=0.5;exitDx=0;exitDy=0;" edge="1" parent="1" source="u_dn0Hhk9Msn1rQg7fFf-23" target="u_dn0Hhk9Msn1rQg7fFf-13">
          <mxGeometry width="50" height="50" relative="1" as="geometry">
            <mxPoint x="970" y="290" as="sourcePoint" />
            <mxPoint x="1250" y="450" as="targetPoint" />
          </mxGeometry>
        </mxCell>
        <mxCell id="u_dn0Hhk9Msn1rQg7fFf-27" value="" style="endArrow=classic;html=1;rounded=0;entryX=0;entryY=0.5;entryDx=0;entryDy=0;exitX=1;exitY=0.5;exitDx=0;exitDy=0;" edge="1" parent="1" source="u_dn0Hhk9Msn1rQg7fFf-23" target="u_dn0Hhk9Msn1rQg7fFf-12">
          <mxGeometry width="50" height="50" relative="1" as="geometry">
            <mxPoint x="1420" y="160" as="sourcePoint" />
            <mxPoint x="1480" as="targetPoint" />
          </mxGeometry>
        </mxCell>
        <mxCell id="u_dn0Hhk9Msn1rQg7fFf-28" value="" style="endArrow=classic;html=1;rounded=0;entryX=0;entryY=0.5;entryDx=0;entryDy=0;exitX=1;exitY=0.5;exitDx=0;exitDy=0;" edge="1" parent="1" source="u_dn0Hhk9Msn1rQg7fFf-23" target="u_dn0Hhk9Msn1rQg7fFf-14">
          <mxGeometry width="50" height="50" relative="1" as="geometry">
            <mxPoint x="1410" y="200" as="sourcePoint" />
            <mxPoint x="1470" y="40" as="targetPoint" />
          </mxGeometry>
        </mxCell>
        <mxCell id="u_dn0Hhk9Msn1rQg7fFf-32" value="" style="ellipse;whiteSpace=wrap;html=1;align=center;aspect=fixed;fillColor=none;strokeColor=none;resizable=0;perimeter=centerPerimeter;rotatable=0;allowArrows=0;points=[];outlineConnect=1;" vertex="1" parent="1">
          <mxGeometry x="1150" y="-100" width="10" height="10" as="geometry" />
        </mxCell>
        <mxCell id="u_dn0Hhk9Msn1rQg7fFf-33" value="" style="endArrow=classic;html=1;rounded=0;entryX=0;entryY=0.5;entryDx=0;entryDy=0;exitX=1;exitY=0.5;exitDx=0;exitDy=0;" edge="1" parent="1" source="u_dn0Hhk9Msn1rQg7fFf-5" target="u_dn0Hhk9Msn1rQg7fFf-16">
          <mxGeometry width="50" height="50" relative="1" as="geometry">
            <mxPoint x="1310" y="-30" as="sourcePoint" />
            <mxPoint x="1370" y="-190" as="targetPoint" />
          </mxGeometry>
        </mxCell>
        <mxCell id="u_dn0Hhk9Msn1rQg7fFf-34" value="" style="endArrow=classic;html=1;rounded=0;entryX=0;entryY=0.5;entryDx=0;entryDy=0;exitX=1;exitY=0;exitDx=0;exitDy=0;" edge="1" parent="1" source="u_dn0Hhk9Msn1rQg7fFf-6" target="u_dn0Hhk9Msn1rQg7fFf-17">
          <mxGeometry width="50" height="50" relative="1" as="geometry">
            <mxPoint x="1320" y="-30" as="sourcePoint" />
            <mxPoint x="1380" y="-190" as="targetPoint" />
          </mxGeometry>
        </mxCell>
        <mxCell id="u_dn0Hhk9Msn1rQg7fFf-35" value="" style="endArrow=classic;html=1;rounded=0;entryX=0;entryY=0.25;entryDx=0;entryDy=0;exitX=1;exitY=1;exitDx=0;exitDy=0;" edge="1" parent="1" source="u_dn0Hhk9Msn1rQg7fFf-8" target="u_dn0Hhk9Msn1rQg7fFf-20">
          <mxGeometry width="50" height="50" relative="1" as="geometry">
            <mxPoint x="1080" y="-40" as="sourcePoint" />
            <mxPoint x="1140" y="-200" as="targetPoint" />
          </mxGeometry>
        </mxCell>
        <mxCell id="u_dn0Hhk9Msn1rQg7fFf-36" value="" style="endArrow=classic;html=1;rounded=0;entryX=0;entryY=0.5;entryDx=0;entryDy=0;exitX=1;exitY=1;exitDx=0;exitDy=0;" edge="1" parent="1" source="u_dn0Hhk9Msn1rQg7fFf-9" target="u_dn0Hhk9Msn1rQg7fFf-21">
          <mxGeometry width="50" height="50" relative="1" as="geometry">
            <mxPoint x="1060" y="90" as="sourcePoint" />
            <mxPoint x="1120" y="-70" as="targetPoint" />
          </mxGeometry>
        </mxCell>
        <mxCell id="u_dn0Hhk9Msn1rQg7fFf-37" value="" style="endArrow=classic;html=1;rounded=0;entryX=0;entryY=0.5;entryDx=0;entryDy=0;exitX=1;exitY=0;exitDx=0;exitDy=0;" edge="1" parent="1" source="u_dn0Hhk9Msn1rQg7fFf-7" target="u_dn0Hhk9Msn1rQg7fFf-18">
          <mxGeometry width="50" height="50" relative="1" as="geometry">
            <mxPoint x="1060" y="30" as="sourcePoint" />
            <mxPoint x="1120" y="-130" as="targetPoint" />
          </mxGeometry>
        </mxCell>
        <mxCell id="u_dn0Hhk9Msn1rQg7fFf-38" value="" style="endArrow=classic;html=1;rounded=0;entryX=0;entryY=0.5;entryDx=0;entryDy=0;exitX=1;exitY=0.5;exitDx=0;exitDy=0;" edge="1" parent="1" source="u_dn0Hhk9Msn1rQg7fFf-16" target="u_dn0Hhk9Msn1rQg7fFf-23">
          <mxGeometry width="50" height="50" relative="1" as="geometry">
            <mxPoint x="1510" y="120" as="sourcePoint" />
            <mxPoint x="1570" y="-40" as="targetPoint" />
          </mxGeometry>
        </mxCell>
        <mxCell id="u_dn0Hhk9Msn1rQg7fFf-39" value="" style="endArrow=classic;html=1;rounded=0;entryX=0;entryY=0.5;entryDx=0;entryDy=0;exitX=1;exitY=0.5;exitDx=0;exitDy=0;" edge="1" parent="1" source="u_dn0Hhk9Msn1rQg7fFf-21" target="u_dn0Hhk9Msn1rQg7fFf-23">
          <mxGeometry width="50" height="50" relative="1" as="geometry">
            <mxPoint x="1470" y="210" as="sourcePoint" />
            <mxPoint x="1530" y="50" as="targetPoint" />
          </mxGeometry>
        </mxCell>
        <mxCell id="u_dn0Hhk9Msn1rQg7fFf-40" value="" style="endArrow=classic;html=1;rounded=0;entryX=0;entryY=0.5;entryDx=0;entryDy=0;exitX=1;exitY=0.5;exitDx=0;exitDy=0;" edge="1" parent="1" source="u_dn0Hhk9Msn1rQg7fFf-17" target="u_dn0Hhk9Msn1rQg7fFf-23">
          <mxGeometry width="50" height="50" relative="1" as="geometry">
            <mxPoint x="1470" y="170" as="sourcePoint" />
            <mxPoint x="1530" y="10" as="targetPoint" />
          </mxGeometry>
        </mxCell>
        <mxCell id="u_dn0Hhk9Msn1rQg7fFf-41" value="" style="endArrow=classic;html=1;rounded=0;entryX=0;entryY=0.5;entryDx=0;entryDy=0;exitX=1;exitY=0.5;exitDx=0;exitDy=0;" edge="1" parent="1" source="u_dn0Hhk9Msn1rQg7fFf-18" target="u_dn0Hhk9Msn1rQg7fFf-23">
          <mxGeometry width="50" height="50" relative="1" as="geometry">
            <mxPoint x="1460" y="210" as="sourcePoint" />
            <mxPoint x="1520" y="50" as="targetPoint" />
          </mxGeometry>
        </mxCell>
        <mxCell id="u_dn0Hhk9Msn1rQg7fFf-42" value="" style="endArrow=classic;html=1;rounded=0;entryX=0;entryY=0.5;entryDx=0;entryDy=0;exitX=1;exitY=0.5;exitDx=0;exitDy=0;" edge="1" parent="1" source="u_dn0Hhk9Msn1rQg7fFf-19" target="u_dn0Hhk9Msn1rQg7fFf-23">
          <mxGeometry width="50" height="50" relative="1" as="geometry">
            <mxPoint x="1500" y="190" as="sourcePoint" />
            <mxPoint x="1560" y="30" as="targetPoint" />
          </mxGeometry>
        </mxCell>
        <mxCell id="u_dn0Hhk9Msn1rQg7fFf-43" value="" style="endArrow=classic;html=1;rounded=0;entryX=0;entryY=0.5;entryDx=0;entryDy=0;exitX=1;exitY=0.5;exitDx=0;exitDy=0;" edge="1" parent="1" source="u_dn0Hhk9Msn1rQg7fFf-20" target="u_dn0Hhk9Msn1rQg7fFf-23">
          <mxGeometry width="50" height="50" relative="1" as="geometry">
            <mxPoint x="1460" y="180" as="sourcePoint" />
            <mxPoint x="1520" y="20" as="targetPoint" />
          </mxGeometry>
        </mxCell>
      </root>
    </mxGraphModel>
  </diagram>
</mxfile>
